<?xml version="1.0" encoding="UTF-8" standalone="no"?>
<svg
   xmlns:dc="http://purl.org/dc/elements/1.1/"
   xmlns:cc="http://creativecommons.org/ns#"
   xmlns:rdf="http://www.w3.org/1999/02/22-rdf-syntax-ns#"
   xmlns:svg="http://www.w3.org/2000/svg"
   xmlns="http://www.w3.org/2000/svg"
   xmlns:sodipodi="http://sodipodi.sourceforge.net/DTD/sodipodi-0.dtd"
   xmlns:inkscape="http://www.inkscape.org/namespaces/inkscape"
   width="16mm"
   height="16mm"
   viewBox="0 0 16 16"
   version="1.1"
   id="svg8"
   inkscape:version="1.0 (4035a4fb49, 2020-05-01)"
   sodipodi:docname="bird.svg">
  <defs
     id="defs2" />
  <sodipodi:namedview
     id="base"
     pagecolor="#ffffff"
     bordercolor="#666666"
     borderopacity="1.0"
     inkscape:pageopacity="0.0"
     inkscape:pageshadow="2"
     inkscape:zoom="7.919596"
     inkscape:cx="19.21544"
     inkscape:cy="29.209528"
     inkscape:document-units="mm"
     inkscape:current-layer="layer1"
     inkscape:document-rotation="0"
     showgrid="false"
     units="mm"
     inkscape:window-width="1920"
     inkscape:window-height="1017"
     inkscape:window-x="-8"
     inkscape:window-y="-8"
     inkscape:window-maximized="1" />
  <metadata
     id="metadata5">
    <rdf:RDF>
      <cc:Work
         rdf:about="">
        <dc:format>image/svg+xml</dc:format>
        <dc:type
           rdf:resource="http://purl.org/dc/dcmitype/StillImage" />
        <dc:title />
      </cc:Work>
    </rdf:RDF>
  </metadata>
  <g
     inkscape:label="Layer 1"
     inkscape:groupmode="layer"
     id="layer1">
    <path
       transform="scale(0.26458333)"
       d="M 0 0 L 0 60.472656 L 60.472656 60.472656 L 60.472656 0 L 0 0 z M 41.578125 3.7792969 L 52.916016 3.7792969 L 52.916016 7.5585938 L 56.695312 7.5585938 L 56.695312 15.117188 L 52.916016 15.117188 L 52.916016 18.898438 L 49.136719 18.898438 L 49.136719 22.677734 L 45.357422 22.677734 L 45.357422 30.236328 L 41.578125 30.236328 L 41.578125 34.015625 L 37.798828 34.015625 L 37.798828 37.794922 L 30.238281 37.794922 L 30.238281 41.574219 L 34.019531 41.574219 L 34.019531 45.353516 L 30.238281 45.353516 L 30.236328 41.574219 L 22.677734 41.574219 L 22.677734 45.353516 L 15.117188 45.353516 L 15.117188 49.134766 L 11.337891 49.134766 L 11.337891 52.914062 L 7.5585938 52.914062 L 7.5585938 56.693359 L 3.7792969 56.693359 L 3.7792969 52.914062 L 7.5585938 52.914062 L 7.5585938 45.353516 L 11.337891 45.353516 L 11.337891 41.574219 L 15.117188 41.574219 L 15.117188 37.794922 L 11.337891 37.794922 L 11.337891 34.015625 L 15.117188 34.015625 L 15.117188 30.236328 L 18.898438 30.236328 L 18.898438 26.457031 L 22.677734 26.457031 L 22.677734 22.677734 L 26.457031 22.677734 L 26.457031 18.898438 L 30.236328 18.898438 L 30.238281 15.117188 L 34.019531 15.117188 L 34.019531 11.337891 L 37.798828 11.337891 L 37.798828 7.5585938 L 41.578125 7.5585938 L 41.578125 3.7792969 z M 45.357422 7.5585938 L 45.357422 11.337891 L 49.136719 11.337891 L 49.136719 7.5585938 L 45.357422 7.5585938 z M 37.798828 18.898438 L 37.798828 22.677734 L 34.019531 22.677734 L 34.019531 26.457031 L 30.238281 26.457031 L 30.238281 30.236328 L 30.236328 30.236328 L 24.566406 30.236328 L 22.677734 30.236328 L 22.677734 34.015625 L 18.898438 34.015625 L 18.898438 37.794922 L 26.457031 37.794922 L 26.457031 34.015625 L 30.236328 34.015625 L 30.238281 34.015625 L 32.126953 34.015625 L 34.019531 34.015625 L 34.019531 30.236328 L 37.798828 30.236328 L 37.798828 26.457031 L 41.578125 26.457031 L 41.578125 18.898438 L 37.798828 18.898438 z "
       style="fill:#000000;fill-opacity:1;stroke-width:0;stroke-linecap:square;paint-order:stroke fill markers"
       id="rect849" />
  </g>
</svg>
